# xmcd CD database file
#
# Track frame offsets:
#	150
#	18467
#	35151
#	49981
#	68178
#	83149
#	99702
#	115867
#	131617
#	151101
#	170172
#
# Disc length: 2516 seconds
#
# Revision: 0
# Processed by: cddbd v1.5.2PL0 Copyright (c) Steve Scherf et al.
# Submitted via: CDex 1.51
#
DISCID=9509d20b
DTITLE=Country Dance Kings - A tribute to Brad Paisley
DYEAR=2006
DGENRE=Country
TTITLE0=He Didn't have to be
TTITLE1=We Dance
TTITLE2=Wrapped Around
TTITLE3=I Wisch you'd Stay
TTITLE4=I'm Gonna miss her
TTITLE5=Celebrity
TTITLE6=Little Moments
TTITLE7=Mud on the Tires
TTITLE8=Whisky Lullaby
TTITLE9=Alcohol
TTITLE10=When i get where i'm going
EXTD=YEAR: 2006
EXTT0=
EXTT1=
EXTT2=
EXTT3=
EXTT4=
EXTT5=
EXTT6=
EXTT7=
EXTT8=
EXTT9=
EXTT10=
PLAYORDER=
